<?xml version="1.0" encoding="UTF-8"?>
<svg xmlns="http://www.w3.org/2000/svg" width="165.8" height="46.939" viewBox="0 0 165.8 46.939">
  <defs>
    <style>.a{fill:#fff;}.b{fill:#10d1d3;}</style>
  </defs>
  <path class="a" d="M429.444,240.85l-7.159,11.8-7.193-11.8H411.22l9.334,15.222v10.622h3.395v-10.55l9.369-15.294Z" transform="translate(-375.635 -220.183)"></path>
  <path class="a" d="M634.862,318.92a9.786,9.786,0,1,0,9.822,9.786A9.7,9.7,0,0,0,634.862,318.92Zm0,16.391a6.6,6.6,0,1,1,6.57-6.6A6.517,6.517,0,0,1,634.862,335.311Z" transform="translate(-570.96 -291.553)"></path>
  <path class="a" d="M889.618,247.549a7.082,7.082,0,0,0-5.536,2.3v-9H880.83v25.844h3.252v-9.786c0-5.375,3.335-6.178,5.322-6.178,2.834,0,4.4,1.624,4.4,4.574v11.39h3.252V255.3C897.052,250.521,894.2,247.549,889.618,247.549Z" transform="translate(-804.633 -220.183)"></path>
  <path class="a" d="M1118.452,240.85H1108.38v25.844h10.072c6.96,0,12.209-5.555,12.209-12.922S1125.411,240.85,1118.452,240.85Zm-6.677,3.252h6.676c5.149,0,8.885,4.066,8.885,9.669s-3.737,9.669-8.885,9.669h-6.676Z" transform="translate(-1012.466 -220.183)"></path>
  <path class="a" d="M1399.87,318.92a9.789,9.789,0,1,0,8.4,15.261l.242-.392-2.86-1.677-.225.4a5.862,5.862,0,0,1-5.344,2.8c-3.447,0-5.916-1.893-6.557-4.979h15.516l.04-.406c.035-.357.074-.77.074-1.149C1409.158,324,1405.9,318.92,1399.87,318.92Zm0,3.181a5.847,5.847,0,0,1,5.888,5.049h-12.232A6.229,6.229,0,0,1,1399.87,322.1Z" transform="translate(-1269.848 -291.553)"></path>
  <path class="a" d="M1626.494,323.89l-5.933,14.611-5.932-14.611h-3.469l7.674,18.718h3.455l7.674-18.718Z" transform="translate(-1471.703 -296.097)"></path>
  <path class="a" d="M16.369,293.941H0L16.369,270.71H32.738Z" transform="translate(0 -247.48)"></path>
  <path class="b" d="M16.369,0H0L16.369,23.23H32.738Z"></path>
  <circle class="b" cx="4.412" cy="4.412" r="4.412" transform="translate(156.976 37.688)"></circle>
</svg>
